<?xml version="1.0" standalone="no"?>
<!DOCTYPE svg PUBLIC "-//W3C//DTD SVG 1.0//EN" "http://www.w3.org/TR/2001/REC-SVG-20010904/DTD/svg10.dtd">
<svg xmlns="http://www.w3.org/2000/svg" xmlns:xlink="http://www.w3.org/1999/xlink" id="body_1" width="43" height="43">

<g transform="matrix(0.86 0 0 0.86 0 0)">
	<g transform="matrix(0.09765625 0 0 0.09765625 0 0)">
		<g>
		</g>
		<g>
		</g>
		<g>
            <path d="M339.449 318.598C 339.449 274.968 374.81702 239.59999 418.44702 239.59999C 423.27203 239.59999 427.98703 240.05598 432.57404 240.88399L432.57404 240.88399L433.66605 234.70099L108.257 234.70099L133.504 377.66998L366.02 377.66998C 349.726 363.199 339.449 342.103 339.449 318.598z" stroke="none" fill="#FFFFFF" fill-rule="nonzero" />
			<g>
                <path d="M449.227 230.271L464.022 146.48999C 464.77 142.25099 463.60602 137.90099 460.839 134.60399C 458.07498 131.30699 453.99 129.40298 449.688 129.40298L449.688 129.40298L378.116 129.40298C 370.078 129.40298 363.56 135.91998 363.56 143.95898C 363.56 151.99799 370.078 158.51498 378.116 158.51498L378.116 158.51498L432.335 158.51498L421.452 220.14598L120.468 220.14598L109.585 158.51498L301.598 158.51498C 309.636 158.51498 316.154 151.99799 316.154 143.95898C 316.154 135.91998 309.636 129.40298 301.598 129.40298L301.598 129.40298L104.015 129.40298L86.832 38.148C 85.537 31.269 79.528 26.286 72.528 26.286L72.528 26.286L14.556 26.286C 6.517 26.287 0 32.803 0 40.843C 0 48.882996 6.517 55.399 14.556 55.399L14.556 55.399L60.457 55.399L119.171005 380.202C 120.4 387.15698 126.44301 392.227 133.50601 392.227L133.50601 392.227L193.99501 392.227C 211.74301 392.227 226.18301 406.667 226.18301 424.41498C 226.18301 442.16296 211.74301 456.60297 193.99501 456.60297C 176.24701 456.60297 161.807 442.16296 161.807 424.41498C 161.807 416.37598 155.29001 409.85898 147.251 409.85898C 139.212 409.85898 132.695 416.37598 132.695 424.41498C 132.695 458.21497 160.194 485.71497 193.994 485.71497C 227.794 485.71497 255.294 458.21597 255.294 424.41498C 255.294 412.61398 251.934 401.58798 246.134 392.227L246.134 392.227L348.378 392.227C 366.12598 392.227 380.56598 406.667 380.56598 424.41498C 380.56598 442.16296 366.12598 456.60297 348.378 456.60297C 330.63 456.60297 316.19 442.16296 316.19 424.41498C 316.19 416.37598 309.672 409.85898 301.634 409.85898C 293.596 409.85898 287.078 416.37598 287.078 424.41498C 287.078 458.21497 314.577 485.71497 348.378 485.71497C 382.179 485.71497 409.677 458.21597 409.677 424.41498C 409.677 420.01797 409.203 415.731 408.318 411.59396C 411.647 411.95395 415.024 412.15097 418.448 412.15097C 470.033 412.15097 512.001 370.18298 512.001 318.59796C 512 277.795 485.732 243.031 449.227 230.271zM125.609 249.258L355.707 249.258C 355.687 249.277 355.668 249.29599 355.647 249.315C 354.497 250.35701 353.37302 251.427 352.277 252.526C 352.07 252.733 351.877 252.951 351.673 253.159C 350.794 254.056 349.923 254.961 349.081 255.89299C 348.71698 256.29498 348.374 256.71298 348.017 257.12198C 347.353 257.87997 346.689 258.63898 346.05 259.41898C 345.66098 259.89398 345.292 260.38397 344.912 260.86597C 344.33298 261.60297 343.75198 262.33795 343.193 263.09296C 342.807 263.61395 342.44 264.14795 342.065 264.67795C 341.542 265.41595 341.02 266.15396 340.519 266.90695C 340.148 267.46594 339.79102 268.03397 339.432 268.60095C 338.957 269.34796 338.486 270.09595 338.03302 270.85696C 337.682 271.44498 337.346 272.03998 337.00803 272.63696C 336.57602 273.39996 336.14902 274.16397 335.739 274.93997C 335.414 275.55096 335.101 276.16898 334.79102 276.78696C 334.39902 277.56696 334.01703 278.35196 333.64502 279.14496C 333.35 279.77795 333.061 280.41397 332.78003 281.05496C 332.42902 281.85297 332.09003 282.65598 331.76004 283.46497C 331.49503 284.11697 331.23505 284.77097 330.98404 285.42996C 330.67303 286.24796 330.37704 287.07297 330.08704 287.90295C 329.85605 288.56796 329.62402 289.23495 329.40704 289.90695C 329.13504 290.74994 328.88205 291.59995 328.63306 292.45294C 328.43607 293.12695 328.23904 293.79895 328.05707 294.48096C 327.82407 295.35394 327.61407 296.23495 327.40607 297.11896C 327.24606 297.79395 327.08105 298.46695 326.93607 299.14795C 326.74207 300.05795 326.57806 300.97595 326.41208 301.89496C 326.29108 302.56296 326.16006 303.22696 326.0521 303.90097C 325.89908 304.86798 325.7781 305.84396 325.6561 306.82098C 325.5761 307.45898 325.4801 308.09 325.4131 308.731C 325.29907 309.814 325.2241 310.90698 325.1471 312C 325.1091 312.546 325.0511 313.086 325.0221 313.633C 324.9361 315.27798 324.8881 316.93298 324.8881 318.599C 324.8881 320.012 324.9321 321.421 324.9961 322.828C 325.0111 323.16602 325.0251 323.505 325.0441 323.84302C 325.1171 325.13 325.2131 326.41403 325.3381 327.69202C 325.38312 328.152 325.4381 328.609 325.4891 329.06802C 325.5881 329.94302 325.6991 330.81503 325.8221 331.68503C 325.9341 332.48602 326.0591 333.28302 326.1921 334.07803C 326.3221 334.84802 326.4551 335.61502 326.6041 336.38104C 326.7451 337.11203 326.8971 337.83905 327.0541 338.56406C 327.1491 338.99304 327.2511 339.41806 327.3511 339.84607C 327.6671 341.20108 328.01212 342.54507 328.3861 343.87708C 328.4751 344.19406 328.56412 344.5121 328.6571 344.82907C 329.3911 347.33707 330.2261 349.80008 331.15912 352.21606C 331.3001 352.58105 331.4461 352.94507 331.59012 353.30807C 332.0371 354.42307 332.5061 355.52808 332.99313 356.62207C 333.23914 357.17407 333.48413 357.72406 333.74014 358.27106C 334.01413 358.85205 334.29214 359.42706 334.57614 360.00204C 334.97916 360.81705 335.39615 361.62604 335.82114 362.43005C 335.94214 362.65704 336.05115 362.89307 336.17514 363.11905L336.17514 363.11905L145.71 363.11905L125.609 249.258zM418.447 383.039C 401.817 383.039 386.63898 376.706 375.197 366.327C 375.097 366.235 374.999 366.139 374.899 366.048C 372.184 363.555 369.69098 360.828 367.43597 357.907C 367.19696 357.59702 366.951 357.293 366.718 356.98C 366.396 356.548 366.09097 356.10202 365.78098 355.66302C 365.44498 355.18604 365.10696 354.71103 364.78397 354.22504C 364.55096 353.87604 364.32797 353.51804 364.10297 353.16205C 363.71896 352.55804 363.33896 351.95206 362.97498 351.33804C 362.81198 351.06305 362.65598 350.78503 362.49597 350.50705C 362.08597 349.78806 361.68497 349.06305 361.30197 348.32904C 361.19598 348.12704 361.09396 347.92303 360.98996 347.72104C 360.56897 346.89105 360.16495 346.05603 359.77997 345.21005C 359.71997 345.08005 359.66196 344.94907 359.60397 344.82004C 359.18896 343.88803 358.79297 342.95004 358.42197 341.99902C 358.39697 341.93503 358.37097 341.87103 358.34598 341.80502C 357.95197 340.786 357.58197 339.75702 357.24 338.71802C 357.237 338.708 357.233 338.699 357.22998 338.68903C 356.17297 335.47903 355.36798 332.18103 354.82697 328.82602L354.82697 328.82602L354.82697 328.825C 354.65497 327.75803 354.51297 326.68402 354.39496 325.60703C 354.38797 325.54602 354.37796 325.48602 354.37195 325.424C 354.26395 324.42 354.18893 323.411 354.12894 322.401C 354.12195 322.269 354.10593 322.139 354.09793 322.007C 354.03793 320.87598 354.00592 319.73898 354.00592 318.60098C 354.00592 283.067 382.9139 254.15898 418.44794 254.15898C 419.45493 254.15898 420.45493 254.18999 421.45093 254.23499C 422.14194 254.26799 422.83493 254.32199 423.52994 254.37799C 423.79294 254.398 424.05695 254.41399 424.31894 254.43799C 425.18793 254.51999 426.05795 254.61798 426.92993 254.73499C 427.00394 254.74498 427.07693 254.75398 427.15094 254.76299C 428.05594 254.88698 428.96194 255.03099 429.86694 255.19199C 459.96695 260.60098 482.88693 286.965 482.88693 318.60098C 482.888 354.132 453.98 383.039 418.447 383.039z" stroke="none" fill="#209D41" fill-rule="nonzero" />
                <path d="M442.348 304.042L433.003 304.042L433.003 294.697C 433.003 286.658 426.485 280.141 418.447 280.141C 410.409 280.141 403.891 286.658 403.891 294.697L403.891 294.697L403.891 304.042L394.546 304.042C 386.508 304.042 379.99 310.559 379.99 318.598C 379.99 326.637 386.508 333.154 394.546 333.154L394.546 333.154L403.891 333.154L403.891 342.499C 403.891 350.538 410.409 357.055 418.447 357.055C 426.485 357.055 433.003 350.538 433.003 342.499L433.003 342.499L433.003 333.154L442.348 333.154C 450.386 333.154 456.904 326.637 456.904 318.598C 456.904 310.559 450.386 304.042 442.348 304.042z" stroke="none" fill="#209D41" fill-rule="nonzero" />
			</g>
		</g>
	</g>
</g>
</svg>