<?xml version="1.0" standalone="no"?>
<!DOCTYPE svg PUBLIC "-//W3C//DTD SVG 1.0//EN" "http://www.w3.org/TR/2001/REC-SVG-20010904/DTD/svg10.dtd">
<svg xmlns="http://www.w3.org/2000/svg" xmlns:xlink="http://www.w3.org/1999/xlink" id="body_1" width="50" height="38">

<g transform="matrix(1.2195122 0 0 1.2258065 0 0)">
	<g transform="matrix(0.12109375 0 0 0.12109375 5.000001 -0)">
		<g>
            <path d="M196.9 187.9L196.9 33.5C 197.09999 20.7 186.79999 10.200001 174 10C 174 10 174 10 174 10L174 10L55.6 10C 42.8 10.2 32.6 20.7 32.699997 33.5C 32.699997 33.5 32.699997 33.5 32.699997 33.5L32.699997 33.5L32.699997 188C 32.499996 200.8 42.799995 211.3 55.6 211.5C 55.6 211.5 55.6 211.5 55.6 211.5L55.6 211.5L174 211.5C 186.8 211.2 197.1 200.7 196.9 187.9C 196.9 187.9 196.9 187.9 196.9 187.9zM46.5 187.9L46.5 33.5C 46.3 28.4 50.3 24.2 55.4 24.1C 55.5 24.1 55.600002 24.1 55.7 24.1L55.7 24.1L174.1 24.1C 179.20001 24.1 183.3 28.2 183.3 33.2C 183.3 33.3 183.3 33.4 183.3 33.5L183.3 33.5L183.3 188C 183.5 193.1 179.5 197.3 174.40001 197.4C 174.3 197.4 174.20001 197.4 174.1 197.4L174.1 197.4L55.6 197.4C 50.5 197.4 46.399998 193.29999 46.399998 188.29999C 46.5 188.1 46.5 188 46.5 187.9z" stroke="none" fill="#2A9939" fill-rule="nonzero" />
            <path d="M216.4 44.9C 214.59999 44.9 212.79999 45.600002 211.5 46.9C 210.2 48.300003 209.5 50.100002 209.5 52L209.5 52L209.5 222C 209.7 227.1 205.7 231.4 200.6 231.7L200.6 231.7L72.5 231.7C 68.6 231.7 65.3 234.9 65.3 238.9C 65.3 242.9 68.5 246.09999 72.5 246.09999L72.5 246.09999L200.7 246.09999C 213.5 245.59999 223.59999 234.9 223.3 222.09999L223.3 222.09999L223.3 52.1C 223.5 48.3 220.5 45.1 216.7 45C 216.6 44.9 216.5 44.9 216.4 44.9zM73.4 77.2L137.8 77.2C 142.3 76.399994 145.3 72 144.40001 67.5C 143.8 64.1 141.1 61.5 137.8 60.9L137.8 60.9L73.4 60.9C 68.9 61.7 65.9 66.1 66.8 70.6C 67.4 74 70 76.6 73.4 77.2z" stroke="none" fill="#2A9939" fill-rule="nonzero" />
            <path d="M150.3 100.4L73.1 100.4C 68.299995 101.3 65.1 105.9 66 110.700005C 66.7 114.3 69.5 117.200005 73.1 117.8L73.1 117.8L150.29999 117.8C 155.09999 116.9 158.29999 112.3 157.4 107.5C 156.8 103.9 153.9 101.1 150.3 100.4zM150.3 145.6L73.1 145.6C 68.299995 146.5 65.1 151.1 66 155.90001C 66.7 159.50002 69.5 162.40001 73.1 163.00002L73.1 163.00002L150.29999 163.00002C 155.09999 162.10002 158.29999 157.50002 157.4 152.70001C 156.8 149.1 153.9 146.3 150.3 145.6z" stroke="none" fill="#2A9939" fill-rule="nonzero" />
		</g>
	</g>
</g>
</svg>