<!DOCTYPE svg PUBLIC "-//W3C//DTD SVG 1.1//EN" "http://www.w3.org/Graphics/SVG/1.1/DTD/svg11.dtd">
<!-- Uploaded to: SVG Repo, www.svgrepo.com, Transformed by: SVG Repo Mixer Tools -->
<svg height="125px" width="125px" version="1.1" id="Capa_1" xmlns="http://www.w3.org/2000/svg" xmlns:xlink="http://www.w3.org/1999/xlink" viewBox="-51.2 -51.2 614.40 614.40" xml:space="preserve" fill="#000000">
<g id="SVGRepo_bgCarrier" stroke-width="0"/>
<g id="SVGRepo_tracerCarrier" stroke-linecap="round" stroke-linejoin="round"/>
<g id="SVGRepo_iconCarrier"> <path style="fill:#51B151;" d="M503.916,397.66c0,16.188-13.122,29.311-29.309,29.311H37.393c-16.188,0-29.309-13.124-29.309-29.311 V114.336c0-16.188,13.122-29.31,29.309-29.31h437.212c16.188,0,29.309,13.123,29.309,29.31v283.325L503.916,397.66L503.916,397.66z"/> <path style="fill:#202121;" d="M474.607,435.056H37.393C16.775,435.056,0,418.28,0,397.66V114.336 c0-20.62,16.775-37.394,37.393-37.394h437.212c20.619,0,37.393,16.775,37.393,37.394v31.459c0,4.466-3.62,8.084-8.084,8.084 c-4.466,0-8.084-3.618-8.084-8.084v-31.459c0-11.704-9.522-21.226-21.225-21.226H37.393c-11.703-0.001-21.225,9.521-21.225,21.225 v283.324c0,11.705,9.522,21.227,21.225,21.227h437.212c11.703,0,21.225-9.522,21.225-21.227V172.023 c0-4.466,3.618-8.084,8.084-8.084c4.465,0,8.084,3.618,8.084,8.084V397.66C512,418.28,495.226,435.056,474.607,435.056z"/> <g style="opacity:0.15;"> <path style="fill:#202121;" d="M28.922,397.66V114.336c0-16.188,13.124-29.31,29.311-29.31h-20.84 C21.206,85.024,8.084,98.148,8.084,114.335v283.324c0,16.188,13.122,29.311,29.309,29.311h20.84 C42.047,426.971,28.922,413.847,28.922,397.66z"/> </g> <g> <path style="fill:#FFFFFF;" d="M65.735,274.641c3.748,1.929,10.845,4.687,17.137,4.687c5.355,0,8.167-2.757,8.167-6.065 c0-3.307-2.143-5.651-8.167-8.685c-7.5-3.859-13.793-9.51-13.793-17.919c0-14.061,11.917-23.297,28.787-23.297 c7.633,0,13.658,1.655,16.735,3.446l-4.551,14.06c-2.677-1.24-7.364-2.895-13.122-2.895c-5.088,0-8.436,2.206-8.436,5.927 c0,2.758,2.679,5.101,7.901,7.582c7.228,3.722,14.727,9.235,14.727,18.61c0,15.438-12.719,23.846-30.126,23.708 c-8.167-0.137-16.066-2.343-19.95-5.237L65.735,274.641z"/> <path style="fill:#FFFFFF;" d="M111.628,293.803l18.076-97.871h19.281l-7.364,39.148h0.267 c5.491-6.203,12.318-10.201,20.887-10.201c10.175,0,16.469,6.617,16.469,18.196c0,3.17-0.536,8.409-1.205,12.131l-7.097,38.597 h-19.28l6.828-36.942c0.535-2.62,0.803-5.514,0.803-8.272c0-4.549-1.741-7.719-6.561-7.719c-6.828,0-13.657,8.547-16.066,22.056 l-5.758,30.876h-19.28C111.628,293.802,111.628,293.803,111.628,293.803z"/> <path style="fill:#FFFFFF;" d="M210.344,293.803c-16.735,0-27.851-11.165-27.851-27.844c0-23.295,15.8-42.595,39.096-42.595 c17.674,0,27.851,12.407,27.851,27.845c0,24.537-16.469,42.594-38.962,42.594H210.344z M212.887,278.641 c10.444,0,16.469-15.853,16.469-27.293c0-6.341-2.677-12.82-10.309-12.82c-11.112,0-16.736,16.542-16.736,27.019 c0,7.857,3.885,13.095,10.444,13.095h0.132L212.887,278.641L212.887,278.641z"/> <path style="fill:#FFFFFF;" d="M241.467,320.164l12.72-68.647c1.472-7.995,2.945-19.711,3.749-26.605h17.272l-1.204,10.339h0.267 c5.356-7.306,13.121-11.304,21.021-11.304c14.192,0,21.154,11.717,21.154,25.64c0,23.295-15.128,44.799-38.024,44.799 c-5.222,0-9.773-1.378-12.05-2.757h-0.402l-5.221,28.535L241.467,320.164L241.467,320.164z M269.048,276.191 c2.142,1.929,4.955,3.17,8.838,3.17c10.309,0,18.344-15.025,18.344-28.259c0-5.375-2.277-11.027-8.436-11.027 c-7.231,0-13.925,8.271-16.333,21.504L269.048,276.191z"/> <path style="fill:#FFFFFF;" d="M316.445,292.772l12.453-67.406h19.148l-12.318,67.406H316.445z M340.814,216.544 c-5.624,0-9.773-4.136-9.773-10.339c0-7.167,5.49-11.992,11.782-11.992c6.027,0,10.31,3.997,10.31,10.338 c0,7.581-5.623,11.993-12.184,11.993H340.814L340.814,216.544z"/> <path style="fill:#FFFFFF;" d="M348.704,292.777l9.64-52.243h-8.436l2.678-15.163h8.569l0.536-3.446 c1.474-8.133,4.553-16.541,11.112-22.193c5.355-4.55,12.319-6.341,18.746-6.341c4.553,0,8.035,0.69,10.175,1.653l-3.347,15.715 c-1.74-0.69-3.75-1.103-6.16-1.103c-6.293,0-10.174,5.651-11.379,12.407l-0.536,3.308h12.853l-2.811,15.163h-12.719l-9.641,52.243 H348.704L348.704,292.777z"/> <path style="fill:#FFFFFF;" d="M416.95,225.669l4.017,29.361c0.938,7.03,1.606,11.855,2.143,16.127h0.268 c1.47-4.135,2.944-8.547,5.757-15.852l11.916-29.637h20.352l-23.43,48.383c-8.702,17.92-16.469,30.189-25.172,38.597 c-7.633,7.444-16.736,10.752-21.021,11.441l-4.286-16.954c3.081-0.965,7.365-2.619,11.113-5.375 c4.419-3.17,8.168-7.168,10.713-11.717c0.534-0.966,0.534-1.791,0.266-3.17l-12.853-61.203L416.95,225.669L416.95,225.669 L416.95,225.669z"/> </g> <g> <path style="fill:#202121;" d="M219.048,238.527c-11.112,0-16.736,16.542-16.736,27.018c0,7.857,3.885,13.095,10.444,13.095h0.133 c10.444,0,16.469-15.853,16.469-27.293C229.357,245.007,226.679,238.527,219.048,238.527z"/> <path style="fill:#202121;" d="M287.794,240.076c-7.231,0-13.925,8.271-16.333,21.504l-2.411,14.612 c2.142,1.929,4.955,3.17,8.838,3.17c10.309,0,18.344-15.025,18.344-28.259C296.229,245.728,293.953,240.076,287.794,240.076z"/> <path style="fill:#202121;" d="M461.42,209.501h-0.002c-0.003,0-0.006,0-0.006,0h-0.009h-20.352c-4.688,0-9.039,2.022-12.051,5.387 c-2.978-3.325-7.299-5.387-12.051-5.387h-1.774l2.362-11.088c1.586-7.444-2.234-14.985-9.175-18.111 c-4.473-2.015-10.289-3.08-16.815-3.08c-10.83,0-20.956,3.448-28.625,9.711c-4.78-5.509-11.889-8.887-20.102-8.887 c-15.674,0-27.951,12.37-27.951,28.16c0,2.685,0.385,5.287,1.085,7.76c-5.772-3.968-12.789-6.186-20.666-6.186 c-4.668,0-9.23,0.804-13.542,2.341c-2-0.884-4.21-1.375-6.536-1.375h-0.005h-17.272c-4.676,0-8.924,2.001-11.895,5.227 c-6.863-4.327-15.192-6.775-24.45-6.775c-12.85,0-24.761,4.261-34.304,12.137c-0.182-0.209-0.359-0.424-0.547-0.627 c-5.861-6.387-14.27-9.93-23.708-9.992l1.762-9.364c0.237-1.101,0.362-2.244,0.362-3.417c0-8.929-7.237-16.168-16.166-16.168 h-0.005h-19.279c-7.796,0-14.484,5.564-15.899,13.231l-2.868,15.531c-4.063-0.868-8.497-1.333-13.067-1.333 c-26.049,0-44.956,16.597-44.956,39.465c0,3.738,0.686,9.053,3.618,14.691c-2.836,1.963-4.998,4.804-6.118,8.133l-4.688,13.922 c-2.232,6.628,0.052,13.941,5.66,18.123c6.831,5.092,17.8,8.247,29.342,8.441c0.047,0.001,0.094,0.001,0.142,0.002l0.55,0.002 c7.365,0,14.185-1.187,20.217-3.468c2.825,2.222,6.334,3.468,9.992,3.468h19.281c3.914,0,7.549-1.402,10.377-3.769 c2.887,2.416,6.553,3.769,10.377,3.769h19.28c5.689,0,10.777-2.971,13.668-7.551c7.239,4.901,16.132,7.551,25.735,7.551h0.135 c5.953,0,11.626-0.91,16.914-2.606l-1.825,9.854c-0.875,4.723,0.396,9.59,3.468,13.284s7.627,5.829,12.43,5.829h19.282 c7.807,0,14.499-5.579,15.904-13.258l2.292-12.522c9.132-0.091,17.755-2.561,25.365-7.124c3.066,3.49,7.478,5.512,12.136,5.512 h19.282c2.298,0,4.494-0.495,6.491-1.372c2.023,0.887,4.223,1.376,6.486,1.376h19.28c1.172,0,2.313-0.14,3.421-0.379 c0.075,0.842,0.199,1.687,0.414,2.532l4.286,16.954c1.838,7.271,8.376,12.208,15.661,12.208c0.853,0,1.714-0.068,2.579-0.207 c7.458-1.198,19.714-6.058,29.722-15.807c9.787-9.467,18.563-22.772,28.45-43.131l23.259-48.029 c1.149-2.223,1.799-4.744,1.799-7.418C477.575,216.744,470.344,209.507,461.42,209.501z M96.397,251.484 c0.492,0.253,0.984,0.516,1.477,0.787c0.056,0.03,0.112,0.064,0.166,0.095c0.455,0.251,0.908,0.512,1.358,0.78 c0.018,0.011,0.036,0.023,0.055,0.032c6.139,3.667,11.671,8.866,11.671,16.914c0,11.208-6.708,18.707-17.042,21.923 c-0.028,0.01-0.058,0.018-0.087,0.026c-0.481,0.149-0.97,0.288-1.467,0.417c-0.086,0.024-0.174,0.045-0.261,0.068 c-0.455,0.115-0.917,0.223-1.385,0.323c-0.094,0.02-0.188,0.041-0.283,0.061c-0.516,0.107-1.041,0.204-1.573,0.292 c-0.033,0.006-0.067,0.013-0.1,0.018c-0.577,0.094-1.16,0.176-1.753,0.247c-0.081,0.01-0.163,0.017-0.244,0.025 c-0.482,0.056-0.967,0.103-1.459,0.144c-0.194,0.016-0.391,0.028-0.587,0.042c-0.386,0.027-0.775,0.05-1.167,0.068 c-0.224,0.01-0.449,0.019-0.677,0.027c-0.385,0.012-0.775,0.018-1.165,0.023c-0.153,0.001-0.302,0.009-0.456,0.009 c-0.141,0-0.28-0.001-0.421-0.002c-8.167-0.137-16.066-2.343-19.95-5.237l4.688-13.922c3.748,1.929,10.845,4.687,17.137,4.687 c5.355,0,8.167-2.757,8.167-6.065c0-3.307-2.143-5.651-8.167-8.685c-7.5-3.859-13.793-9.51-13.793-17.919 c0-14.061,11.917-23.297,28.787-23.297c0.959,0,1.893,0.026,2.799,0.075c0,0,0.009,0,0.013,0.001 c2.714,0.149,5.176,0.504,7.315,0.986l0.004,0.001c2.819,0.637,5.077,1.493,6.605,2.382l-4.551,14.06 c-1.205-0.558-2.837-1.194-4.772-1.732c-0.55-0.153-1.13-0.294-1.729-0.427c-0.064-0.014-0.125-0.028-0.19-0.043 c-0.528-0.113-1.082-0.21-1.645-0.3c-0.138-0.023-0.269-0.047-0.41-0.068c-0.522-0.075-1.067-0.132-1.618-0.183 c-0.178-0.016-0.348-0.04-0.529-0.054c-0.722-0.054-1.465-0.086-2.23-0.086c-5.088,0-8.436,2.206-8.436,5.927 C88.496,246.659,91.175,249.002,96.397,251.484z M178.039,255.207l-7.097,38.597h-19.28l6.828-36.942 c0.535-2.62,0.803-5.515,0.803-8.272c0-4.549-1.741-7.719-6.561-7.719c-6.828,0-13.657,8.547-16.066,22.056l-5.758,30.876h-11.543 h-7.738l14.473-78.362l3.603-19.509h19.281l-7.364,39.148h0.267c5.491-6.203,12.318-10.201,20.887-10.201 c0.707,0,1.39,0.04,2.059,0.103c0.196,0.018,0.383,0.051,0.575,0.074c0.475,0.059,0.943,0.129,1.398,0.221 c0.196,0.039,0.387,0.085,0.579,0.132c0.454,0.108,0.896,0.231,1.326,0.372c0.154,0.051,0.307,0.1,0.459,0.154 c0.503,0.182,0.988,0.386,1.458,0.613c0.06,0.029,0.123,0.055,0.184,0.084c5.339,2.674,8.431,8.336,8.431,16.442 C179.244,246.246,178.708,251.484,178.039,255.207z M230.993,287.947L230.993,287.947c-0.01,0.006-0.018,0.012-0.026,0.017 c-0.656,0.419-1.331,0.813-2.016,1.19c-0.154,0.085-0.308,0.167-0.463,0.25c-0.609,0.324-1.229,0.634-1.859,0.925 c-0.11,0.051-0.216,0.106-0.326,0.154c-0.742,0.333-1.496,0.643-2.264,0.929c-0.115,0.042-0.234,0.08-0.35,0.122 c-0.645,0.233-1.298,0.446-1.959,0.645c-0.201,0.06-0.4,0.119-0.603,0.176c-0.691,0.194-1.389,0.372-2.099,0.527 c-0.098,0.022-0.194,0.047-0.292,0.069c-0.8,0.169-1.611,0.31-2.434,0.429c-0.206,0.03-0.417,0.054-0.625,0.08 c-0.637,0.083-1.279,0.15-1.927,0.203c-0.239,0.019-0.476,0.039-0.717,0.055c-0.843,0.052-1.692,0.087-2.555,0.087h-0.135 c-0.545,0-1.084-0.014-1.617-0.037c-0.17-0.008-0.337-0.023-0.507-0.032c-0.362-0.022-0.722-0.042-1.078-0.073 c-0.194-0.018-0.383-0.042-0.575-0.063c-0.327-0.036-0.652-0.07-0.973-0.114c-0.196-0.026-0.388-0.059-0.583-0.089 c-0.313-0.049-0.624-0.099-0.931-0.156c-0.19-0.034-0.376-0.074-0.562-0.113c-0.308-0.065-0.614-0.129-0.918-0.202 c-0.178-0.043-0.354-0.088-0.529-0.134c-0.308-0.079-0.613-0.162-0.916-0.25c-0.163-0.047-0.326-0.097-0.487-0.147 c-0.312-0.098-0.619-0.201-0.924-0.306c-0.146-0.051-0.291-0.102-0.433-0.155c-0.322-0.119-0.639-0.244-0.953-0.373 c-0.12-0.05-0.24-0.098-0.358-0.149c-0.341-0.147-0.676-0.3-1.008-0.459c-0.086-0.042-0.175-0.081-0.262-0.124 c-0.376-0.185-0.746-0.38-1.109-0.582c-0.037-0.02-0.074-0.039-0.112-0.06c-2.483-1.393-4.659-3.164-6.488-5.263 c-0.002-0.002-0.003-0.004-0.005-0.006c-4.166-4.788-6.522-11.289-6.522-18.958c0-12.353,4.443-23.58,12.09-31.403 c0,0,0-0.001,0.001-0.001c0.23-0.235,0.47-0.459,0.705-0.688c0.211-0.206,0.42-0.417,0.637-0.619 c0.239-0.221,0.486-0.431,0.73-0.647c0.224-0.198,0.446-0.399,0.676-0.592c0.246-0.205,0.498-0.401,0.748-0.601 c0.239-0.19,0.475-0.382,0.719-0.566c0.251-0.19,0.509-0.372,0.765-0.555c0.252-0.181,0.504-0.364,0.762-0.539 c0.258-0.176,0.522-0.343,0.786-0.513c0.263-0.169,0.528-0.338,0.797-0.502c0.266-0.162,0.538-0.317,0.808-0.472 c0.276-0.157,0.553-0.314,0.832-0.465c0.274-0.148,0.55-0.289,0.827-0.428c0.29-0.147,0.579-0.29,0.873-0.427 c0.278-0.132,0.558-0.259,0.84-0.383c0.302-0.134,0.607-0.262,0.913-0.387c0.283-0.115,0.567-0.23,0.855-0.338 c0.315-0.119,0.633-0.233,0.953-0.344c0.288-0.1,0.575-0.201,0.866-0.292c0.331-0.107,0.665-0.205,1-0.302 c0.289-0.083,0.576-0.168,0.868-0.246c0.347-0.092,0.698-0.174,1.051-0.255c0.289-0.068,0.577-0.138,0.87-0.198 c0.365-0.077,0.737-0.142,1.107-0.208c0.286-0.051,0.568-0.106,0.856-0.15c0.397-0.063,0.799-0.11,1.199-0.158 c0.272-0.033,0.539-0.072,0.813-0.101c0.449-0.046,0.905-0.075,1.362-0.108c0.232-0.016,0.461-0.039,0.695-0.051 c0.693-0.036,1.392-0.055,2.098-0.055c0.531,0,1.055,0.013,1.573,0.034c0.18,0.008,0.356,0.023,0.534,0.032 c0.335,0.02,0.667,0.039,0.996,0.068c0.213,0.019,0.424,0.044,0.634,0.067c0.286,0.03,0.57,0.06,0.85,0.097 c0.23,0.03,0.455,0.068,0.681,0.102c0.253,0.039,0.507,0.078,0.755,0.123c0.24,0.042,0.475,0.091,0.71,0.138 c0.229,0.047,0.456,0.094,0.68,0.146c0.247,0.056,0.489,0.115,0.731,0.178c0.205,0.052,0.41,0.106,0.61,0.162 c0.251,0.069,0.502,0.142,0.749,0.219c0.181,0.056,0.361,0.113,0.54,0.172c0.26,0.086,0.517,0.174,0.773,0.266 c0.154,0.056,0.306,0.114,0.459,0.174c0.271,0.105,0.54,0.209,0.805,0.321c0.12,0.051,0.238,0.105,0.357,0.156 c0.291,0.127,0.579,0.255,0.861,0.392c0.068,0.032,0.133,0.068,0.201,0.1c2.202,1.088,4.17,2.448,5.889,4.039 c0.002,0.002,0.004,0.003,0.006,0.005c5.496,5.092,8.458,12.529,8.458,20.853C249.441,267.37,242.296,280.716,230.993,287.947z M296.519,289.229c-0.06,0.038-0.121,0.077-0.181,0.113c-0.379,0.235-0.765,0.461-1.154,0.681 c-0.094,0.053-0.189,0.103-0.282,0.155c-1.133,0.624-2.302,1.185-3.507,1.678c-0.201,0.082-0.398,0.166-0.6,0.245 c-0.306,0.118-0.615,0.23-0.926,0.338c-0.261,0.093-0.524,0.182-0.789,0.268c-0.287,0.094-0.572,0.186-0.862,0.272 c-0.337,0.1-0.676,0.191-1.016,0.28c-0.232,0.06-0.461,0.127-0.695,0.183c-0.56,0.135-1.129,0.253-1.701,0.36 c-0.204,0.038-0.411,0.068-0.617,0.101c-0.414,0.069-0.83,0.134-1.25,0.188c-0.225,0.029-0.453,0.056-0.681,0.08 c-0.429,0.046-0.862,0.084-1.298,0.115c-0.204,0.014-0.404,0.031-0.609,0.042c-0.637,0.035-1.278,0.057-1.927,0.057 c-5.222,0-9.773-1.378-12.05-2.757h-0.402l-5.221,28.535h-19.282l12.72-68.647c1.472-7.995,2.945-19.711,3.749-26.605h17.272 l-1.204,10.339h0.267c5.356-7.306,13.121-11.304,21.021-11.304c0.446,0,0.885,0.012,1.317,0.034 c0.11,0.005,0.213,0.018,0.322,0.025c0.32,0.023,0.64,0.043,0.952,0.077c0.126,0.014,0.247,0.034,0.373,0.051 c0.289,0.036,0.578,0.071,0.86,0.117c0.116,0.02,0.23,0.046,0.345,0.068c0.285,0.052,0.568,0.103,0.845,0.165 c0.105,0.024,0.204,0.054,0.307,0.079c0.283,0.069,0.566,0.138,0.841,0.217c0.086,0.025,0.167,0.056,0.252,0.081 c0.289,0.088,0.576,0.177,0.855,0.277c0.068,0.025,0.132,0.052,0.198,0.077c0.294,0.109,0.584,0.219,0.869,0.34 c0.05,0.022,0.097,0.046,0.147,0.068c0.296,0.129,0.59,0.264,0.876,0.407c0.038,0.019,0.073,0.041,0.112,0.06 c0.293,0.151,0.584,0.305,0.868,0.471c0.028,0.017,0.056,0.034,0.085,0.053c0.289,0.17,0.575,0.347,0.853,0.532 c0.017,0.011,0.031,0.023,0.049,0.033c0.289,0.194,0.571,0.395,0.846,0.605c0.009,0.005,0.015,0.012,0.024,0.017 c0.282,0.216,0.56,0.439,0.83,0.67c0.002,0.001,0.003,0.003,0.004,0.004c5.438,4.667,8.127,12.463,8.127,21.112 C316.445,265.986,308.943,281.483,296.519,289.229z M335.728,292.772h-3.169h-15.56h-0.553l11.827-64.017c0-0.001,0-0.001,0-0.001 l0.626-3.389h7.27h11.876L335.728,292.772z M340.949,216.544h-0.135c-0.578,0-1.136-0.054-1.68-0.139c0,0-0.005-0.001-0.008-0.001 c-0.283-0.045-0.56-0.102-0.834-0.168c-0.019-0.004-0.038-0.01-0.057-0.014c-0.267-0.068-0.529-0.144-0.786-0.233 c-0.022-0.006-0.041-0.014-0.061-0.022c-0.257-0.091-0.51-0.189-0.753-0.299c-0.012-0.005-0.023-0.012-0.033-0.016 c-1.246-0.567-2.33-1.392-3.203-2.438c-0.035-0.041-0.072-0.08-0.107-0.122c-0.123-0.153-0.238-0.315-0.351-0.476 c-0.064-0.088-0.127-0.175-0.188-0.266c-0.096-0.148-0.185-0.301-0.275-0.455c-0.068-0.115-0.134-0.233-0.197-0.352 c-0.075-0.146-0.149-0.294-0.218-0.446c-0.064-0.139-0.125-0.28-0.184-0.425c-0.059-0.146-0.116-0.291-0.17-0.442 c-0.057-0.16-0.108-0.324-0.157-0.49c-0.044-0.144-0.088-0.288-0.126-0.435c-0.047-0.184-0.086-0.375-0.126-0.565 c-0.027-0.138-0.059-0.275-0.082-0.417c-0.038-0.22-0.064-0.447-0.088-0.675c-0.013-0.12-0.031-0.238-0.042-0.36 c-0.028-0.354-0.045-0.714-0.045-1.082c0-7.167,5.49-11.992,11.782-11.992c0.493,0,0.968,0.036,1.436,0.088 c0.117,0.014,0.235,0.029,0.351,0.045c0.431,0.063,0.853,0.14,1.259,0.246c0.028,0.008,0.058,0.012,0.086,0.018 c0.444,0.119,0.868,0.269,1.279,0.439c0.074,0.03,0.149,0.065,0.222,0.097c0.391,0.171,0.769,0.363,1.126,0.58 c0.011,0.008,0.024,0.013,0.033,0.02c0.39,0.239,0.756,0.508,1.102,0.799c0.024,0.02,0.049,0.043,0.072,0.064 c1.05,0.902,1.885,2.039,2.457,3.382l0.001,0.001c0.567,1.331,0.884,2.856,0.884,4.558 C353.133,212.133,347.51,216.544,340.949,216.544z M377.625,240.533l-9.641,52.243h-15.821h-3.459l9.64-52.243h-8.436l2.678-15.163 h8.569l0.536-3.446c1.318-7.271,3.926-14.756,9.151-20.302c0.079-0.083,0.16-0.165,0.24-0.248c0.549-0.567,1.115-1.12,1.721-1.643 c5.355-4.55,12.319-6.341,18.746-6.341c4.553,0,8.035,0.69,10.175,1.653l-3.078,14.457l-0.268,1.258 c-1.273-0.504-2.695-0.857-4.307-1.011h-0.001c-0.592-0.057-1.204-0.092-1.852-0.092c-6.293,0-10.174,5.651-11.379,12.407 l-0.536,3.308h0.266h12.587l-2.811,15.163h-7.011L377.625,240.533L377.625,240.533z M389.047,267.738l3.724,17.734 c-1.032,1.121-2.238,2.183-3.588,3.152c-0.053,0.037-0.105,0.074-0.156,0.112c-0.812,0.598-2.167,1.414-4.267,2.234 L389.047,267.738z M437.972,274.053c-8.702,17.92-16.469,30.189-25.172,38.597c-7.633,7.444-16.736,10.752-21.021,11.441 l-4.286-16.954c3.081-0.965,7.365-2.619,11.113-5.375c4.419-3.17,8.168-7.168,10.713-11.717c0.534-0.966,0.534-1.791,0.266-3.17 l-12.853-61.203h12.584h7.633l4.017,29.361c0.938,7.03,1.606,11.855,2.143,16.127h0.268c1.47-4.135,2.944-8.547,5.757-15.852 l11.916-29.637h20.352L437.972,274.053z"/> </g> </g>
</svg>